<mxfile host="app.diagrams.net" modified="2024-05-15T11:27:13.640Z" agent="Mozilla/5.0 (Windows NT 10.0; Win64; x64) AppleWebKit/537.36 (KHTML, like Gecko) Chrome/124.0.0.0 Safari/537.36" etag="7xzOQw-NObecCceUNQmu" version="24.3.1" type="device">
  <diagram name="Page-1" id="bCiHaC87YzLlGU4efyeL">
    <mxGraphModel dx="867" dy="685" grid="1" gridSize="10" guides="1" tooltips="1" connect="1" arrows="1" fold="1" page="1" pageScale="1" pageWidth="850" pageHeight="1100" math="0" shadow="0">
      <root>
        <mxCell id="0" />
        <mxCell id="1" parent="0" />
        <mxCell id="0PF4LAEfTyMPjusYF1LV-1" value="DOG" style="swimlane;fontStyle=1;align=center;verticalAlign=top;childLayout=stackLayout;horizontal=1;startSize=26;horizontalStack=0;resizeParent=1;resizeParentMax=0;resizeLast=0;collapsible=1;marginBottom=0;whiteSpace=wrap;html=1;" vertex="1" parent="1">
          <mxGeometry x="180" y="20" width="160" height="220" as="geometry" />
        </mxCell>
        <mxCell id="0PF4LAEfTyMPjusYF1LV-2" value="- name: str&lt;div&gt;- breed: str&lt;/div&gt;&lt;div&gt;- age: int&lt;/div&gt;&lt;div&gt;- color: str&lt;/div&gt;" style="text;strokeColor=none;fillColor=none;align=left;verticalAlign=top;spacingLeft=4;spacingRight=4;overflow=hidden;rotatable=0;points=[[0,0.5],[1,0.5]];portConstraint=eastwest;whiteSpace=wrap;html=1;" vertex="1" parent="0PF4LAEfTyMPjusYF1LV-1">
          <mxGeometry y="26" width="160" height="74" as="geometry" />
        </mxCell>
        <mxCell id="0PF4LAEfTyMPjusYF1LV-3" value="" style="line;strokeWidth=1;fillColor=none;align=left;verticalAlign=middle;spacingTop=-1;spacingLeft=3;spacingRight=3;rotatable=0;labelPosition=right;points=[];portConstraint=eastwest;strokeColor=inherit;" vertex="1" parent="0PF4LAEfTyMPjusYF1LV-1">
          <mxGeometry y="100" width="160" height="8" as="geometry" />
        </mxCell>
        <mxCell id="0PF4LAEfTyMPjusYF1LV-4" value="+ __init__(name:&amp;nbsp; str, breed: str, age: int, color: str)&lt;div&gt;+ get_name(): void&lt;/div&gt;&lt;div&gt;+ get_breed(): void&lt;/div&gt;&lt;div&gt;+ get_age(): void&lt;/div&gt;&lt;div&gt;+ get_color(): void&lt;/div&gt;&lt;div&gt;+ get message(): void&lt;/div&gt;" style="text;strokeColor=none;fillColor=none;align=left;verticalAlign=top;spacingLeft=4;spacingRight=4;overflow=hidden;rotatable=0;points=[[0,0.5],[1,0.5]];portConstraint=eastwest;whiteSpace=wrap;html=1;" vertex="1" parent="0PF4LAEfTyMPjusYF1LV-1">
          <mxGeometry y="108" width="160" height="112" as="geometry" />
        </mxCell>
        <mxCell id="0PF4LAEfTyMPjusYF1LV-6" value="" style="endArrow=none;html=1;rounded=0;exitX=0.463;exitY=1.027;exitDx=0;exitDy=0;exitPerimeter=0;" edge="1" parent="1" source="0PF4LAEfTyMPjusYF1LV-4">
          <mxGeometry relative="1" as="geometry">
            <mxPoint x="190" y="220" as="sourcePoint" />
            <mxPoint x="254" y="260" as="targetPoint" />
          </mxGeometry>
        </mxCell>
        <mxCell id="0PF4LAEfTyMPjusYF1LV-7" value="" style="endArrow=none;html=1;rounded=0;" edge="1" parent="1">
          <mxGeometry relative="1" as="geometry">
            <mxPoint x="140" y="260" as="sourcePoint" />
            <mxPoint x="680" y="260" as="targetPoint" />
          </mxGeometry>
        </mxCell>
        <mxCell id="0PF4LAEfTyMPjusYF1LV-8" value="" style="endArrow=block;endFill=1;html=1;edgeStyle=orthogonalEdgeStyle;align=left;verticalAlign=top;rounded=0;" edge="1" parent="1">
          <mxGeometry x="-1" relative="1" as="geometry">
            <mxPoint x="140" y="260" as="sourcePoint" />
            <mxPoint x="140" y="360" as="targetPoint" />
          </mxGeometry>
        </mxCell>
        <mxCell id="0PF4LAEfTyMPjusYF1LV-11" value="" style="endArrow=block;endFill=1;html=1;edgeStyle=orthogonalEdgeStyle;align=left;verticalAlign=top;rounded=0;" edge="1" parent="1">
          <mxGeometry x="-1" relative="1" as="geometry">
            <mxPoint x="390" y="260" as="sourcePoint" />
            <mxPoint x="390" y="360" as="targetPoint" />
          </mxGeometry>
        </mxCell>
        <mxCell id="0PF4LAEfTyMPjusYF1LV-12" value="" style="endArrow=block;endFill=1;html=1;edgeStyle=orthogonalEdgeStyle;align=left;verticalAlign=top;rounded=0;" edge="1" parent="1">
          <mxGeometry x="-1" relative="1" as="geometry">
            <mxPoint x="680" y="260" as="sourcePoint" />
            <mxPoint x="680" y="360" as="targetPoint" />
          </mxGeometry>
        </mxCell>
        <mxCell id="0PF4LAEfTyMPjusYF1LV-17" value="Tuffy" style="swimlane;fontStyle=0;childLayout=stackLayout;horizontal=1;startSize=26;fillColor=none;horizontalStack=0;resizeParent=1;resizeParentMax=0;resizeLast=0;collapsible=1;marginBottom=0;whiteSpace=wrap;html=1;" vertex="1" parent="1">
          <mxGeometry x="70" y="360" width="140" height="100" as="geometry" />
        </mxCell>
        <mxCell id="0PF4LAEfTyMPjusYF1LV-18" value="name: Tuffy&lt;div&gt;breed: Papillion&lt;/div&gt;&lt;div&gt;age: 5&lt;/div&gt;&lt;div&gt;color: White&lt;/div&gt;&lt;div&gt;&lt;br&gt;&lt;/div&gt;" style="text;strokeColor=none;fillColor=none;align=left;verticalAlign=top;spacingLeft=4;spacingRight=4;overflow=hidden;rotatable=0;points=[[0,0.5],[1,0.5]];portConstraint=eastwest;whiteSpace=wrap;html=1;" vertex="1" parent="0PF4LAEfTyMPjusYF1LV-17">
          <mxGeometry y="26" width="140" height="74" as="geometry" />
        </mxCell>
        <mxCell id="0PF4LAEfTyMPjusYF1LV-25" value="Max" style="swimlane;fontStyle=0;childLayout=stackLayout;horizontal=1;startSize=26;fillColor=none;horizontalStack=0;resizeParent=1;resizeParentMax=0;resizeLast=0;collapsible=1;marginBottom=0;whiteSpace=wrap;html=1;" vertex="1" parent="1">
          <mxGeometry x="320" y="360" width="140" height="100" as="geometry" />
        </mxCell>
        <mxCell id="0PF4LAEfTyMPjusYF1LV-26" value="name: Max&lt;div&gt;breed: Great Dane&lt;/div&gt;&lt;div&gt;age: 7&lt;/div&gt;&lt;div&gt;color: Black&lt;/div&gt;&lt;div&gt;&lt;br&gt;&lt;/div&gt;" style="text;strokeColor=none;fillColor=none;align=left;verticalAlign=top;spacingLeft=4;spacingRight=4;overflow=hidden;rotatable=0;points=[[0,0.5],[1,0.5]];portConstraint=eastwest;whiteSpace=wrap;html=1;" vertex="1" parent="0PF4LAEfTyMPjusYF1LV-25">
          <mxGeometry y="26" width="140" height="74" as="geometry" />
        </mxCell>
        <mxCell id="0PF4LAEfTyMPjusYF1LV-27" value="Lala" style="swimlane;fontStyle=0;childLayout=stackLayout;horizontal=1;startSize=26;fillColor=none;horizontalStack=0;resizeParent=1;resizeParentMax=0;resizeLast=0;collapsible=1;marginBottom=0;whiteSpace=wrap;html=1;" vertex="1" parent="1">
          <mxGeometry x="610" y="360" width="140" height="100" as="geometry" />
        </mxCell>
        <mxCell id="0PF4LAEfTyMPjusYF1LV-28" value="name: Lala&lt;div&gt;breed: Cihuahua&lt;/div&gt;&lt;div&gt;age: 3&lt;/div&gt;&lt;div&gt;color: Brown&lt;/div&gt;&lt;div&gt;&lt;br&gt;&lt;/div&gt;" style="text;strokeColor=none;fillColor=none;align=left;verticalAlign=top;spacingLeft=4;spacingRight=4;overflow=hidden;rotatable=0;points=[[0,0.5],[1,0.5]];portConstraint=eastwest;whiteSpace=wrap;html=1;" vertex="1" parent="0PF4LAEfTyMPjusYF1LV-27">
          <mxGeometry y="26" width="140" height="74" as="geometry" />
        </mxCell>
      </root>
    </mxGraphModel>
  </diagram>
</mxfile>
